<?xml version="1.0" encoding="UTF-8" standalone="no"?>
<svg width="32" height="32" viewBox="0 0 32 32" fill="none" xmlns="http://www.w3.org/2000/svg">
  <rect width="32" height="32" rx="16" fill="url(#paint0_linear)" />
  <path d="M16 6C19.866 6 23 9.13401 23 13V19C23 22.866 19.866 26 16 26C12.134 26 9 22.866 9 19V13C9 9.13401 12.134 6 16 6Z" stroke="white" stroke-width="1.5" stroke-linecap="round" stroke-linejoin="round"/>
  <path d="M16 10C17.6569 10 19 11.3431 19 13V19C19 20.6569 17.6569 22 16 22C14.3431 22 13 20.6569 13 19V13C13 11.3431 14.3431 10 16 10Z" stroke="white" stroke-width="1.5" stroke-linecap="round" stroke-linejoin="round"/>
  <path d="M16 14C16.5523 14 17 14.4477 17 15V17C17 17.5523 16.5523 18 16 18C15.4477 18 15 17.5523 15 17V15C15 14.4477 15.4477 14 16 14Z" fill="white"/>
  <defs>
    <linearGradient id="paint0_linear" x1="0" y1="0" x2="32" y2="32" gradientUnits="userSpaceOnUse">
      <stop stop-color="#22D3EE" />
      <stop offset="1" stop-color="#A855F7" />
    </linearGradient>
  </defs>
</svg>